<?xml version="1.0"?>
<svg xmlns:rdf="http://www.w3.org/1999/02/22-rdf-syntax-ns#" xmlns="http://www.w3.org/2000/svg" xmlns:cc="http://creativecommons.org/ns#" xmlns:dc="http://purl.org/dc/elements/1.1/" xmlns:svg="http://www.w3.org/2000/svg" id="svg2" viewBox="0 0 687.36 687.99" version="1.0">
  <path id="path2881" d="m338.46 681.84c-10.6-11.85-15.77-19.14-20.66-29.11-4.02-8.19-6.15-16.33-7.59-28.95-1.56-13.61-0.97-22.77 3.26-51.15 1.94-12.99 2.36-26.95 1-33.45-0.93-4.48-6.16-20.78-7.13-22.2-0.77-1.15-1.46-0.42-7.38 7.76-5.57 7.71-12.98 14.84-25.17 24.22-5.88 4.53-12.2 9.39-14.03 10.8-28.64 22.12-41.38 39.64-46.03 63.29-0.37 1.9-0.84 10.58-1.03 19.3-0.37 16.48-0.61 19.32-1.54 18.35-0.77-0.79-6.09-16.83-7.66-23.09-3.31-13.16-3.96-22.48-2.31-32.98 2.4-15.24 10.68-36.38 19.78-50.51 1.32-2.04 2.39-3.84 2.39-4.01s1.23-2.27 2.74-4.68c9.79-15.68 13.48-24.42 15.55-36.76 0.99-5.94 1.42-20 0.6-20-0.22 0-2.47 1.36-4.98 3.02-11.01 7.27-18.41 10.2-42.02 16.65-25.88 7.06-35.47 10.34-46.19 15.81-17.66 8.99-29.32 20.72-36.69 36.9-1.28 2.83-3.15 6.89-4.14 9.01-1 2.12-3.04 6.53-4.55 9.79s-2.99 5.78-3.29 5.59c-0.89-0.55-0.64-6.91 0.72-18.28 1.68-14.21 3.69-21.86 7.99-30.56 8.28-16.73 21.25-30.58 45.75-48.84 21.41-15.97 27.87-22.75 35.02-36.73 2.84-5.54 4.96-11.05 4.45-11.56-0.32-0.32-4.15 0.24-11.05 1.62-5.29 1.05-21.22 0.72-31.64-0.67-29-3.86-32.01-4.12-46.64-4.15-11.638-0.02-15.589 0.2-20.129 1.15-10.699 2.24-18.995 5.4-26.689 10.2-5.013 3.12-5.932 3.89-19.976 16.88-5.772 5.33-10.766 9.79-11.098 9.91-1.989 0.71 0.152-4.33 7.721-18.19 6.864-12.56 16.177-23.25 26.097-29.94 12.907-8.71 30.246-15.81 50.274-20.59 11.11-2.66 24.48-6.34 27.25-7.52 7.07-3 11.6-5.6 17.02-9.76 5.64-4.32 13.99-12.45 13.4-13.04-0.28-0.27-2.78-0.97-5.55-1.54-11.31-2.33-22.7-7.11-37.31-15.65-3.12-1.83-5.77-3.32-5.88-3.32s-2.19-1.21-4.61-2.69c-8.04-4.9-28.104-14.55-35.615-17.13-11.188-3.84-17.478-4.95-27.986-4.95-12.076 0-16.041 0.86-32.49 7.09-14.821 5.61-18.242 6.79-19.206 6.6-1.4561-0.28 11.521-11.68 20.884-18.35 11.325-8.06 22.206-12.28 36.996-14.33 15.999-2.23 27.979-1.67 54.937 2.58 11.17 1.76 25.81 2.35 32.3 1.31 5-0.8 19.21-4.81 20.45-5.77 0.35-0.28 1.44-0.7 2.42-0.93 0.97-0.23 1.76-0.83 1.76-1.32s-2.82-2.91-6.27-5.37c-8.74-6.25-16.64-14.32-25.96-26.52-13.43-17.58-21.95-27.64-30.26-35.73-9.2-8.95-13.609-12.25-23.444-17.54-5.861-3.16-15.953-6.23-23.581-7.19-2.907-0.36-10.794-0.69-17.527-0.74-12.533-0.07-16.1-0.41-16.1-1.53 0-0.35 4.044-1.99 8.988-3.63 20.996-6.99 34.622-8.55 49.501-5.68 6.107 1.18 20.313 5.6 25.093 7.8 9.63 4.44 20.23 10.06 25.64 13.57 2.04 1.33 3.82 2.42 3.96 2.42 0.13 0 2.12 1.14 4.42 2.54 5.74 3.49 16.12 8.79 20.17 10.3 5.49 2.06 16.09 3.91 24.84 4.33 9.58 0.46 9.51 0.53 5.59-5.27-3.93-5.8-9.18-16.61-11.42-23.48-1.1-3.36-3.62-12.19-5.61-19.63-3.8-14.18-9.27-31.66-11.26-36.02-0.65-1.42-1.94-4.31-2.86-6.44-6.84-15.66-20.41-30.57-34.13-37.5-2.12-1.07-6.89-3.3-10.6-4.95-6.87-3.05-15.65-7.1-17.33-7.98-3.782-1.98 3.33-2.11 17.97-0.34 18.04 2.19 27.17 5.2 38.98 12.82 13.17 8.51 25.13 20.6 38.82 39.24 14.78 20.1 19.46 25.17 29.19 31.6 4.85 3.2 18.12 9.9 19.62 9.9 1.04 0 1.06 0.41-0.82-11.85-1.32-8.62-1.22-17.46 0.32-29.01 3.92-29.33 4.59-37.45 4.31-51.79-0.36-18.262-1.92-25.403-8.36-38.433-3.93-7.959-7.32-12.326-19.35-24.935-8.97-9.403-11.49-12.545-10.08-12.545 0.37 0 5.09 2.207 10.48 4.905 17.24 8.626 26.89 15.889 34.62 26.04 4.58 6.019 6.14 8.623 10.56 17.628 5.42 11.067 8.46 19.871 13.2 38.28 6.64 25.75 8.23 29.96 15 39.85 3.26 4.76 13.6 16.12 14.67 16.12 0.3 0 0.71-0.79 0.93-1.77 3.5-15.88 6.77-24.53 13.64-36.12 1.6-2.69 3.55-6.05 4.33-7.46 0.78-1.42 2.51-4.46 3.84-6.76 16.69-28.747 22.87-46.277 22.85-64.889 0-4.119-0.3-9.331-0.67-11.583-0.65-4.006-3.77-14.592-5.44-18.423-1.82-4.193-8.04-21.185-8.04-21.97 0-1.5854 11.54 11.187 17.82 19.718 11.8 16.05 16.28 31.751 16.28 57.066 0 9.731-0.33 14.383-1.62 23.081-0.9 5.99-1.92 13.06-2.28 15.71-0.35 2.66-0.91 6.85-1.25 9.33-0.95 7.15-0.74 15.21 0.59 22.07 1.44 7.39 5.55 20.2 7.11 22.13 1.05 1.3 1.17 1.19 5.63-5.03 5.88-8.22 14.16-16.63 23.03-23.38 19.49-14.87 28.54-22.34 36.56-30.2 13.88-13.6 20.22-23.191 25.12-38.022 2.1-6.336 2.89-13.385 3.23-28.683 0.19-8.521 0.62-16.193 0.94-17.049l0.6-1.555 0.73 1.865c3.26 8.323 7.14 21.741 8.77 30.303 4.23 22.254-2.87 48.271-21.51 78.811-13.22 21.65-16.21 28.36-18.3 41.18-1.39 8.53-2.05 19.67-1.19 20.2 0.38 0.23 2.72-0.89 5.21-2.49 6.04-3.86 17.47-9.56 22.6-11.25 2.28-0.75 9.07-2.68 15.08-4.29 19.2-5.14 34.06-9.57 35.39-10.54 0.35-0.25 1.44-0.66 2.43-0.89 0.98-0.24 3.3-1.12 5.14-1.97 1.85-0.85 4.67-2.13 6.26-2.85 6.26-2.84 13.52-7.61 20.09-13.22 8.82-7.52 14.67-16.33 22.06-33.18 4.1-9.36 7.03-15.03 7.9-15.31 0.67-0.21 0.76 1.08 0.44 6.4-0.8 13.31-2.79 25.43-5.58 33.96-5.64 17.28-21.42 36.17-44.7 53.5-15.11 11.25-23.85 18.22-26.46 21.09-5.88 6.46-11.33 14.82-14.94 22.92-1.11 2.48-2.3 5.04-2.66 5.7-0.36 0.68-0.4 1.45-0.09 1.76s3.94-0.03 8.25-0.77c6.54-1.13 9.44-1.28 19.28-1 6.37 0.19 14.48 0.79 18.02 1.33 7.04 1.09 19.67 2.58 31.2 3.69 20.16 1.93 38.88-0.76 53.35-7.67 8.28-3.95 14.05-8.58 30.03-24.08 5.79-5.61 8.62-7.49 8.62-5.72 0 0.99-5.75 11.82-12.8 24.12-7.31 12.75-20.49 24.11-36.74 31.66-6.42 2.99-7.36 3.4-10.94 4.74-1.94 0.74-4.11 1.61-4.82 1.94-2.13 0.99-11.47 3.6-25.34 7.1-21.35 5.39-25.48 6.96-35.43 13.47-5.85 3.82-17.78 14.73-16.94 15.48 0.28 0.25 3.22 1.08 6.54 1.86 5.52 1.28 11.94 3.2 15.2 4.53 3.12 1.29 12.54 5.96 15.88 7.89 2.02 1.16 5.64 3.25 8.05 4.63 13.55 7.82 17.8 10.16 24 13.25 3.36 1.68 7.99 3.85 10.29 4.82s5.16 2.2 6.36 2.72c5.02 2.2 19.57 5.32 26.67 5.73 9.7 0.55 21.25-1.07 27.71-3.89 3.05-1.33 12.49-4.88 12.96-4.88 0.23 0 1.33-0.41 2.44-0.91 5.2-2.31 11.28-4.35 12.36-4.14 0.88 0.17-0.52 1.71-5.54 6.06-20.93 18.15-32.63 23.99-54.01 26.97-13.74 1.92-27.27 1.17-53.4-2.93-4.77-0.75-13.31-1.51-18.98-1.69-11.33-0.35-16.03 0.36-27.74 4.22-8.14 2.68-10.55 3.81-10.15 4.74 0.19 0.45 2.14 1.96 4.32 3.37 9.78 6.31 18.02 14.52 28.12 28 14.77 19.7 27.16 33.98 35.5 40.92 10.33 8.6 17.93 13.06 27.69 16.24 9.49 3.09 12.07 3.42 29.88 3.88 9.27 0.23 17.04 0.62 17.28 0.85 1.01 1.01-1.01 1.96-11.23 5.28-13.36 4.35-19.95 5.65-30.3 6.01-8.76 0.3-14.44-0.36-23.69-2.78-5.24-1.36-18.81-6.33-21.88-8-0.59-0.32-3.1-1.57-5.57-2.78-5.72-2.8-8.38-4.28-16.91-9.4-3.79-2.28-8.92-5.35-11.4-6.83-13.96-8.36-24.39-11.52-40.55-12.29-7.21-0.35-8.67-0.27-8.67 0.48 0.01 0.5 1.31 2.89 2.9 5.3 3.16 4.82 8.46 15.45 10.48 21.02 0.7 1.95 2.64 8.6 4.3 14.8 11.29 42.04 16.78 55.16 29.33 69.98 7.95 9.39 15.29 14.32 34.06 22.89 12.76 5.82 16.08 7.46 16.08 7.94 0 1.09-16.52-0.15-28.53-2.14-25.16-4.17-44.78-18.82-69.52-51.9-16.12-21.55-20.51-25.97-33.19-33.39-5.86-3.42-14.67-7.3-15.26-6.71-0.24 0.24 0.05 3.54 0.64 7.34 2.19 14.14 2.09 21.74-0.5 40.03-1.36 9.52-3.35 28.62-3.86 36.99-0.99 16.2 2.23 33.7 8.54 46.32 3.62 7.27 6.42 10.87 18.71 24.13 10.13 10.93 12.71 14.15 11.34 14.15-0.39 0-13.95-6.89-18.76-9.53-21.6-11.86-33.26-26.54-44.28-55.77-0.93-2.47-3.56-11.83-5.85-20.78-6.84-26.84-9.36-33.39-16.4-42.75-4.41-5.87-12.83-14.74-13.7-14.45-0.38 0.13-0.94 1.52-1.24 3.08-2.08 11.07-7.09 23.98-13.84 35.66-1.02 1.77-2.95 5.1-4.28 7.4-2.72 4.67-3.83 6.65-8.71 15.44-5.2 9.38-6.2 11.3-6.94 13.28-0.38 1.01-1.61 4.01-2.73 6.66-3.02 7.13-5.64 15.65-6.82 22.2-1.39 7.71-1.35 19.72 0.07 26.7 0.93 4.53 5.41 17.97 8.15 24.44 0.85 2.01 5.06 13.58 5.06 13.91 0 1.02-1.74-0.46-5.57-4.74z" stroke="#f00" stroke-width="2.2" fill="#fefe98"/>
  <metadata>
    <rdf:RDF>
      <cc:Work>
        <dc:format>image/svg+xml</dc:format>
        <dc:type rdf:resource="http://purl.org/dc/dcmitype/StillImage"/>
        <cc:license rdf:resource="http://creativecommons.org/licenses/publicdomain/"/>
        <dc:publisher>
          <cc:Agent rdf:about="http://openclipart.org/">
            <dc:title>Openclipart</dc:title>
          </cc:Agent>
        </dc:publisher>
        <dc:title>Sun</dc:title>
        <dc:date>2009-04-02T08:56:49</dc:date>
        <dc:description>Sun symbol by ff77. From old OCAL website.</dc:description>
        <dc:source>http://openclipart.org/detail/23769/sun-by-anonymous-23769</dc:source>
        <dc:creator>
          <cc:Agent>
            <dc:title>Anonymous</dc:title>
          </cc:Agent>
        </dc:creator>
        <dc:subject>
          <rdf:Bag>
            <rdf:li>clip art</rdf:li>
            <rdf:li>clipart</rdf:li>
            <rdf:li>image</rdf:li>
            <rdf:li>media</rdf:li>
            <rdf:li>png</rdf:li>
            <rdf:li>public domain</rdf:li>
            <rdf:li>sign</rdf:li>
            <rdf:li>sun</rdf:li>
            <rdf:li>svg</rdf:li>
            <rdf:li>symbol</rdf:li>
            <rdf:li>weather</rdf:li>
            <rdf:li>yellow</rdf:li>
          </rdf:Bag>
        </dc:subject>
      </cc:Work>
      <cc:License rdf:about="http://creativecommons.org/licenses/publicdomain/">
        <cc:permits rdf:resource="http://creativecommons.org/ns#Reproduction"/>
        <cc:permits rdf:resource="http://creativecommons.org/ns#Distribution"/>
        <cc:permits rdf:resource="http://creativecommons.org/ns#DerivativeWorks"/>
      </cc:License>
    </rdf:RDF>
  </metadata>
</svg>
