<?xml version="1.0"?>
<svg xmlns:rdf="http://www.w3.org/1999/02/22-rdf-syntax-ns#" xmlns="http://www.w3.org/2000/svg" xmlns:cc="http://web.resource.org/cc/" xmlns:xlink="http://www.w3.org/1999/xlink" xmlns:dc="http://purl.org/dc/elements/1.1/" xmlns:svg="http://www.w3.org/2000/svg" id="svg8516" viewBox="0 0 265 500" version="1.0">
  <defs id="defs8518">
    <linearGradient id="linearGradient13270" y2="335.14" gradientUnits="userSpaceOnUse" x2="285.23" gradientTransform="matrix(3.6832 0 0 3.6832 -689.76 -476.86)" y1="293.79" x1="285.23">
      <stop id="stop8988" stop-color="#fff" offset="0"/>
      <stop id="stop8990" stop-color="#005a00" offset="1"/>
    </linearGradient>
  </defs>
  <g id="layer1" transform="translate(-228.31 -263.24)">
    <path id="path18669" d="m377.82 755.69s6.43-181.14 7-195.63c0.77-20.02 5.82-107.27 5.79-109.1-0.05-3.21-0.08-3.32-0.93-3.32-2.78 0.36-5.31 1.76-8.09 2.09-3.87-0.84-7.52-2.92-10.78-5.14-1.99-2.24-0.73-6 0.31-8.72 0.23-0.61 1.17-2.41 1.74-4.18 3.23-10.09 2.81-9.19 4.79-10.22 3.29-1.05 6.39 1.59 8.91 3.54l1.39 1.1c3.72-1.45 7.7-2.13 11.32-3.82 0.09-0.06-0.59-0.89-1.52-1.84-1.51-1.55-4.51-3.51-10.34-6.77-1.09-0.61-12.36-9.28-15.55-12.27-3.64-3.39-7.01-6.79-15.67-15.83-11.08-11.55-16.72-17.15-42.08-41.75-2.76-2.69-23.32-21.34-25.26-23.09-3.58-3.23-51.63-44.48-52.91-45.59-2.54-2.23-3.11-3.02-2.78-3.87 0.56-1.45 5.95 0.48 11.07 3.96 1.5 1.03 50.05 39.07 52.9 41.3 1.35 1.06 28.96 24.18 30.57 25.32 1.84 1.31 28.8 24.68 31.71 27.44 1.6 1.52 37.69 33.33 44.17 39.14 3.4 3.05 5.77 4.86 6.79 5.23 0.87 0.3 1.77 0.7 2 0.87 0.22 0.18 0.8 0.42 1.28 0.54 1.1 0.27 3.3-1.55 3.67-3.04 0.49-1.95 5.85-12.45 7.3-14.31 2.46-3.15 23.76-21.07 25.78-22.64 2.03-1.56 24.64-19.35 25.46-20.03 6.54-5.44 10.65-8.56 11.52-8.76 0.76-0.16 1.16 0.66 1.16 2.43 0.01 1.9-1.92 5.08-5.54 9.14-1.34 1.49-22 25.79-23.42 27.27-1.41 1.47-21.71 24.22-25.85 28.37l-7.53 7.54-0.33 2.18c-0.6 3.95-0.94 4.88-2.37 6.45-0.93 1.13-1.06 2.52-0.87 3.95 0.15 1.22 0.69 4.24 1.54 7.36 0.29 1.05 8.05 30.21 8.33 31.52 0.33 1.6 19.92 59.23 20.36 60.58 0.44 1.36 16.99 61.14 17.26 62.29 4.78 17.52 8.58 35.28 12.6 52.98 0.43 2 1.23 7.06 1.61 10.65-0.03 0.34-0.21 0.56-0.54 0.56-0.32 0-0.68-0.3-0.8-0.67-0.12-0.36-0.81-2.2-1.55-4.08-1.77-4.55-3.28-9.22-4.66-14.37-0.62-2.33-10.76-37.99-11.8-41.65s-18.64-61.5-19.74-64.95c-5.41-17.08-20.26-60.24-22.42-65.13-3.65-8.74-6.79-17.68-10.65-26.33-1.21-2.62-1.86-3.38-2.7-3.98-0.83-0.59-1.67-1.01-1.88-0.94-0.2 0.06-0.83 1.23-1.39 2.58-1.01 2.43-1.02 2.55-0.89 9.87 0.07 4.07 5.97 110.05 6.12 116.22l4.68 189.52-38.29 0.03z" stroke="#191919" stroke-width="5.1019" fill="url(#linearGradient13270)"/>
  </g>
  <metadata>
    <rdf:RDF>
      <cc:Work>
        <dc:format>image/svg+xml</dc:format>
        <dc:type rdf:resource="http://purl.org/dc/dcmitype/StillImage"/>
        <cc:license rdf:resource="http://creativecommons.org/licenses/publicdomain/"/>
        <dc:publisher>
          <cc:Agent rdf:about="http://openclipart.org/">
            <dc:title>Openclipart</dc:title>
          </cc:Agent>
        </dc:publisher>
        <dc:title>Wind Turbine 2</dc:title>
        <dc:date>2006-12-26T00:00:00</dc:date>
        <dc:description>clip art, clipart, ecology, electricity, energy, power, power_plant, wind_turbine, </dc:description>
        <dc:source>http://openclipart.org/detail/3581/-by--3581</dc:source>
        <dc:creator>
          <cc:Agent>
            <dc:title>erlandh</dc:title>
          </cc:Agent>
        </dc:creator>
        <dc:subject>
          <rdf:Bag>
            <rdf:li>clip art</rdf:li>
            <rdf:li>clipart</rdf:li>
            <rdf:li>ecology</rdf:li>
            <rdf:li>electricity</rdf:li>
            <rdf:li>energy</rdf:li>
            <rdf:li>power</rdf:li>
            <rdf:li>power_plant</rdf:li>
            <rdf:li>wind_turbine</rdf:li>
          </rdf:Bag>
        </dc:subject>
      </cc:Work>
      <cc:License rdf:about="http://creativecommons.org/licenses/publicdomain/">
        <cc:permits rdf:resource="http://creativecommons.org/ns#Reproduction"/>
        <cc:permits rdf:resource="http://creativecommons.org/ns#Distribution"/>
        <cc:permits rdf:resource="http://creativecommons.org/ns#DerivativeWorks"/>
      </cc:License>
    </rdf:RDF>
  </metadata>
</svg>
